<svg xmlns="http://www.w3.org/2000/svg" focuable = 'false' viewBox="0 0 24 24" aria-hidden="true" role="presentation">
  <path d="M12,0A12,12,0,1,0,24,12,12,12,0,0,0,12,0ZM7.73,2.73a12.71,12.71,0,0,0-1.49,3.2H3.8A10.27,10.27,0,0,1,7.73,2.73Zm-5,5h3a20.94,20.94,0,0,0-.4,3.37H1.84A10.12,10.12,0,0,1,2.73,7.73Zm0,8.53a10.12,10.12,0,0,1-.89-3.37H5.38a20.94,20.94,0,0,0,.4,3.37h-3Zm1.06,1.8H6.24a12.72,12.72,0,0,0,1.5,3.21A10.26,10.26,0,0,1,3.8,18.06ZM11.1,22c-1.14-.49-2.23-1.89-3-3.95h3V22Zm0-5.75H7.6a19,19,0,0,1-.43-3.37H11.1v3.37Zm0-5.16H7.17A19,19,0,0,1,7.6,7.73h3.5V11.1Zm0-5.16h-3C8.87,3.88,10,2.48,11.1,2V5.94Zm10.16,1.8a10.12,10.12,0,0,1,.9,3.37H18.62a20.92,20.92,0,0,0-.4-3.37h3ZM20.2,5.94H17.76a12.71,12.71,0,0,0-1.49-3.2A10.27,10.27,0,0,1,20.2,5.94ZM12.9,2c1.14,0.49,2.23,1.89,3,3.94h-3V2Zm0,5.74h3.5a19,19,0,0,1,.43,3.37H12.9V7.73Zm0,5.16h3.93a18.94,18.94,0,0,1-.43,3.37H12.9V12.9Zm0,9.11V18.06h3C15.13,20.12,14,21.51,12.9,22Zm3.37-.74a12.72,12.72,0,0,0,1.5-3.21H20.2A10.26,10.26,0,0,1,16.27,21.27Zm2-5a20.94,20.94,0,0,0,.4-3.37h3.54a10.12,10.12,0,0,1-.89,3.37h-3Z"></path>
</svg>